{"title":"Ram Ratan 2017 1CD DVD-Rip x264 MP3 Mafiaking M2Tv","magnet":"magnet:?xt=urn:btih:5d90b032231d3fd7c3db23a662a755bcce20b342&dn=Ram+Ratan+2017+1CD+DVD-Rip+x264+MP3+Mafiaking+M2Tv&tr=udp%3A%2F%2Ftracker.leechers-paradise.org%3A6969&tr=udp%3A%2F%2Fzer0day.ch%3A1337&tr=udp%3A%2F%2Fopen.demonii.com%3A1337&tr=udp%3A%2F%2Ftracker.coppersurfer.tk%3A6969&tr=udp%3A%2F%2Fexodus.desync.com%3A6969","uploader":"mafiaaking","categoryP":"video","categoryS":"movies","size":"735885419","seeders":"7","leechers":"24","description":"Ram Ratan (2017) - 1CD - DVD-Rip - Hindi - x264 - MP3 - Mafiaking - M2Tv\r\n <a href=\"\nhttp://www.imdb.com/title/tt7550816/\" rel=\"nofollow\" target=\"_NEW\">\nhttp://www.imdb.com/title/tt7550816/</a>\r\n\r\nRatings: 4.5/10\r\n\r\nGenere:      Romance \r\n\r\nGeneral\r\nComplete name               : Ram Ratan (2017) - 1CD - DVD-Rip - Hindi - x264 - MP3 - Mafiaking - M2Tv.mkv\r\nFormat                      : Matroska\r\nFile size                   : 697 MiB\r\nDuration                    : 1 h 57 min\r\nOverall bit rate            : 832 kb/s\r\n\r\nVideo\r\nID                          : 1\r\nFormat                      : AVC\r\nCodec ID                    : V_MPEG4/ISO/AVC\r\nDuration                    : 1 h 57 min\r\nBit rate                    : 750 kb/s\r\nWidth                       : 640 pixels\r\nHeight                      : 272 pixels\r\nDisplay aspect ratio        : 2.35:1\r\nFrame rate mode             : Constant\r\nFrame rate                  : 29.970 (30000/1001) FPS\r\nStream size                 : 628 MiB (90%)\r\nTitle                       : Mafiaking\r\nLanguage                    : Hindi\r\nDefault                     : Yes\r\nForced                      : No\r\n\r\nAudio\r\nID                          : 2\r\nFormat                      : MPEG Audio\r\nCodec ID/Hint               : MP3\r\nDuration                    : 1 h 57 min\r\nBit rate                    : 80.0 kb/s\r\nChannel(s)                  : 2 channels\r\nStream size                 : 67.0 MiB (10%)\r\nTitle                       : Mafiaking\r\nLanguage                    : Hindi\r\nDefault                     : Yes\r\nForced                      : No\r\n\r\nScreens:-\r\n <a href=\"\nhttps://www.lookimg.com/image/opcce\" rel=\"nofollow\" target=\"_NEW\">\nhttps://www.lookimg.com/image/opcce</a> <a href=\"\nhttps://www.lookimg.com/image/opL4U\" rel=\"nofollow\" target=\"_NEW\">\nhttps://www.lookimg.com/image/opL4U</a> <a href=\"\nhttps://www.lookimg.com/image/opiBR\" rel=\"nofollow\" target=\"_NEW\">\nhttps://www.lookimg.com/image/opiBR</a> <a href=\"\nhttps://www.lookimg.com/image/op67n\" rel=\"nofollow\" target=\"_NEW\">\nhttps://www.lookimg.com/image/op67n</a> <a href=\"\nhttps://www.lookimg.com/image/opVqq\" rel=\"nofollow\" target=\"_NEW\">\nhttps://www.lookimg.com/image/opVqq</a> <a href=\"\nhttps://www.lookimg.com/image/opDyW\" rel=\"nofollow\" target=\"_NEW\">\nhttps://www.lookimg.com/image/opDyW</a> <a href=\"\nhttps://www.lookimg.com/image/opwbQ\" rel=\"nofollow\" target=\"_NEW\">\nhttps://www.lookimg.com/image/opwbQ</a> <a href=\"\nhttps://www.lookimg.com/image/oplDr\" rel=\"nofollow\" target=\"_NEW\">\nhttps://www.lookimg.com/image/oplDr</a> <a href=\"\nhttps://www.lookimg.com/image/opj8h\" rel=\"nofollow\" target=\"_NEW\">\nhttps://www.lookimg.com/image/opj8h</a> <a href=\"\nhttps://www.lookimg.com/image/optFj\" rel=\"nofollow\" target=\"_NEW\">\nhttps://www.lookimg.com/image/optFj</a> <a href=\"\nhttps://www.lookimg.com/image/opWKo\" rel=\"nofollow\" target=\"_NEW\">\nhttps://www.lookimg.com/image/opWKo</a> <a href=\"\nhttps://www.lookimg.com/image/opbcH\" rel=\"nofollow\" target=\"_NEW\">\nhttps://www.lookimg.com/image/opbcH</a> <a href=\"\nhttps://www.lookimg.com/image/opE4V\" rel=\"nofollow\" target=\"_NEW\">\nhttps://www.lookimg.com/image/opE4V</a> <a href=\"\nhttps://www.lookimg.com/image/opnUK\" rel=\"nofollow\" target=\"_NEW\">\nhttps://www.lookimg.com/image/opnUK</a>","last_updated":"2018-01-28T12:05:21.432Z","parsed":{"xt":"urn:btih:5d90b032231d3fd7c3db23a662a755bcce20b342","dn":"Ram Ratan 2017 1CD DVD-Rip x264 MP3 Mafiaking M2Tv","tr":["udp://exodus.desync.com:6969","udp://open.demonii.com:1337","udp://tracker.coppersurfer.tk:6969","udp://tracker.leechers-paradise.org:6969","udp://zer0day.ch:1337"],"infoHash":"5d90b032231d3fd7c3db23a662a755bcce20b342","infoHashBuffer":{"type":"Buffer","data":[93,144,176,50,35,29,63,215,195,219,35,166,98,167,85,188,206,32,179,66]},"name":"Ram Ratan 2017 1CD DVD-Rip x264 MP3 Mafiaking M2Tv","announce":["udp://exodus.desync.com:6969","udp://open.demonii.com:1337","udp://tracker.coppersurfer.tk:6969","udp://tracker.leechers-paradise.org:6969","udp://zer0day.ch:1337"],"urlList":[]}}